<svg xmlns="http://www.w3.org/2000/svg" width="32" height="32" version="1" id="food"><path fill="#5dc560" d="M32 16c0 8.836-7.164 16-16 16S0 24.836 0 16 7.164 0 16 0s16 7.164 16 16z"></path><path fill="#fff" d="M22.225 10.931c-.294.074-.515.294-.736.589-.22-.074-.368-.147-.589-.147-.294 0-.662.073-.957.368 0 0-.073 0-.073.073l-.957 1.178-2.576 2.503c-.074-.074-.221-.148-.368-.221-.221-.074-.442-.147-.663-.147-.22 0-.515.073-.736.22-2.06.957-3.975 2.061-5.226 2.945-.662.515-1.177.883-1.546 1.324-.147.221-.294.368-.368.516-.073.22-.147.368-.073.589v.073c.147.22.368.295.515.295h.663a9.31 9.31 0 0 0 2.06-.516 40.3 40.3 0 0 0 5.447-2.208c.515-.22.81-.589.884-1.03v-.074l3.385.147h.074l2.503-.736h.073c.368-.073.663-.147.883-.368.221-.22.295-.589.295-.957.22-.22.515-.441.515-.736.074-.294-.074-.515-.22-.81.22-.294.294-.735.073-1.103-.147-.221-.442-.368-.81-.442.074-.147.074-.368.074-.515-.074-.221-.147-.368-.368-.516-.147-.073-.368-.073-.59-.073.075-.147-.293-.295-.588-.221zm.074.589c.073 0 .22 0 .294.073l-.662 1.693-1.62.368c-.073 0-.073 0-.147.074l-2.944 1.987 2.208-2.208h.074l.883-1.177c.22-.148.368-.221.515-.221.147 0 .368.073.663.147.147.074.368-.074.368-.22.073-.443.22-.516.368-.516zm.81.294h.22c.074.074.074.074.074.148 0 .147-.074.368-.147.441-.221.147 0 .589.294.515.515-.073.662 0 .736.148a.453.453 0 0 1-.074.515c-.073.073-.073.294 0 .368.148.22.221.368.148.515 0 .147-.074.295-.295.442l-1.62-.59H22.3c-.074 0-.074 0-.074.074l-1.472 1.105h-.147l-3.46 1.03v-.074l3.313-2.208 1.766-.368c.074 0 .147-.073.22-.22l.663-1.84zm-.81 3.165 1.472.59c0 .22-.074.294-.147.367a.888.888 0 0 1-.59.221h-.073l-2.429.736-2.355-.147 2.65-.81.073-.073 1.399-.884zm-7.876 1.399c.074 0 .147.073.147.147a.158.158 0 0 1-.147.147.158.158 0 0 1-.147-.147l.147-.147zm.883.073c.074 0 .147.074.147.148a.158.158 0 0 1-.147.147.158.158 0 0 1-.147-.147c0-.074.147-.148.147-.148zm-2.576.884c.074 0 .147.073.147.147a.158.158 0 0 1-.147.147.158.158 0 0 1-.147-.147c0-.074.073-.147.147-.147zm1.03 0c.074 0 .148.073.148.147a.158.158 0 0 1-.147.147.158.158 0 0 1-.148-.147c0-.074 0-.147.148-.147zm1.399.294c.074 0 .147.074.147.147a.158.158 0 0 1-.147.148.158.158 0 0 1-.147-.148c0-.073.147-.147.147-.147zm-1.104.515c.074 0 .147.074.147.148a.158.158 0 0 1-.147.147.158.158 0 0 1-.147-.147c0-.074 0-.148.147-.148zm-3.312.221c.073 0 .147.074.147.147a.158.158 0 0 1-.147.148.158.158 0 0 1-.148-.148c0-.073.074-.147.148-.147zm1.177.147c.074 0 .148.074.148.148a.158.158 0 0 1-.148.147.158.158 0 0 1-.147-.147c0-.074.074-.148.147-.148zm1.104.074c.074 0 .148.074.148.147a.158.158 0 0 1-.148.147.158.158 0 0 1-.147-.147c-.073-.073 0-.147.147-.147zm-2.65.736c.074 0 .148.074.148.147a.158.158 0 0 1-.147.147c-.074 0-.148 0-.148-.147 0-.073.074-.147.148-.147zm-.956.589c.073 0 .147.073.147.147a.158.158 0 0 1-.147.147.158.158 0 0 1-.147-.147c0-.147.073-.147.147-.147zm-.589.147c.074 0 .147.074.147.147a.158.158 0 0 1-.147.147.158.158 0 0 1-.147-.147s0-.147.147-.147z"></path></svg>